<svg version="1.1" id="Layer_1" xmlns="http://www.w3.org/2000/svg" xmlns:xlink="http://www.w3.org/1999/xlink" x="0px" y="0px"
	 width="100%" viewBox="0 0 708 356" enable-background="new 0 0 708 356" xml:space="preserve">
<path fill="#FDFEFE" opacity="1.000000" stroke="none" 
	d="
M509.000000,357.000000 
	C339.373047,357.000000 170.246109,357.000000 1.059576,357.000000 
	C1.059576,238.400940 1.059576,119.801834 1.059576,1.101367 
	C236.876968,1.101367 472.753998,1.101367 708.815552,1.101367 
	C708.815552,119.666428 708.815552,238.333191 708.815552,357.000000 
	C642.468445,357.000000 575.984192,357.000000 509.000000,357.000000 
M317.518158,200.458527 
	C317.518158,200.458527 317.483643,200.523987 317.573212,201.241714 
	C319.694244,206.502792 321.815277,211.763870 323.887299,217.611664 
	C324.164093,218.106567 324.440918,218.601456 324.700500,219.618820 
	C324.823792,219.741943 324.947083,219.865082 325.041046,220.717834 
	C326.019196,223.148041 326.997314,225.578232 327.918732,228.589447 
	C328.196259,229.079117 328.473755,229.568787 328.781982,230.752228 
	C329.424591,232.199478 330.067200,233.646713 330.748016,235.861710 
	C333.397888,242.618256 336.047760,249.374802 338.696594,256.635376 
	C338.810303,256.759064 338.924011,256.882782 339.030762,257.675842 
	C339.286560,258.022552 339.542328,258.369293 339.732269,258.836395 
	C339.732269,258.836395 339.794586,258.958710 339.769897,259.619263 
	C340.091553,260.171387 340.413177,260.723511 340.789398,261.074585 
	C340.789398,261.074585 340.676788,261.249847 340.712952,262.000336 
	C345.741272,275.020691 350.769592,288.041046 355.800568,301.716766 
	C356.167328,302.487976 356.534088,303.259186 356.898163,304.727203 
	C357.166168,305.085724 357.434174,305.444275 357.549286,306.476471 
	C358.577393,309.019623 359.605469,311.562775 360.656982,314.855591 
	C361.002441,315.494843 361.347870,316.134064 361.609528,316.841217 
	C361.609528,316.841217 361.614929,316.948914 361.655487,317.721649 
	C362.511047,319.813080 363.366608,321.904510 364.236176,324.564056 
	C364.346863,324.717773 364.457581,324.871460 364.479095,325.483459 
	C364.698822,325.877411 364.918518,326.271362 365.248474,327.333313 
	C365.379303,327.517212 365.510101,327.701111 365.587189,328.562500 
	C365.977448,331.121185 366.517426,333.503296 370.974548,332.503967 
	C384.292480,332.444519 397.610382,332.385040 411.676147,332.669830 
	C417.293518,332.669830 422.910889,332.669830 429.254150,332.669830 
	C428.038727,329.875183 427.274414,328.117737 426.422180,325.872040 
	C426.321777,325.551514 426.162018,325.263977 426.009033,324.393494 
	C425.634583,323.675659 425.260162,322.957855 424.823792,321.623718 
	C424.714996,321.448212 424.606232,321.272736 424.464630,320.502838 
	C424.108917,319.813110 423.753174,319.123383 423.285583,317.807465 
	C423.011047,317.239960 422.736511,316.672455 422.473358,315.379211 
	C421.120331,312.056854 419.767303,308.734497 418.415192,305.126617 
	C418.415192,305.126617 418.208557,304.929596 418.251434,304.403656 
	C418.140564,304.267120 418.029724,304.130554 417.779938,303.189728 
	C417.519501,302.713562 417.259064,302.237427 417.229553,301.651642 
	C417.229553,301.651642 417.134064,301.412476 417.134064,301.412476 
	C417.134064,301.412476 416.876923,301.388550 416.812561,300.824066 
	C416.603699,300.514252 416.394836,300.204468 416.211975,299.383301 
	C416.103363,299.251648 415.994720,299.119995 415.709290,298.143738 
	C415.443390,297.633820 415.177460,297.123901 415.124176,296.714020 
	C415.124176,296.714020 414.864960,296.444061 414.753998,295.720154 
	C414.623566,295.513763 414.493164,295.307404 414.419128,294.455078 
	C413.819672,293.077393 413.220215,291.699677 412.534210,290.098053 
	C412.534210,290.098053 412.325256,289.979767 412.314026,289.204681 
	C412.015381,288.497833 411.716736,287.790955 411.464417,286.449554 
	C410.934937,285.309723 410.405487,284.169861 409.812714,282.357697 
	C409.191254,280.910706 408.569794,279.463684 407.963806,277.341705 
	C407.466461,276.350311 406.969116,275.358948 406.447784,274.094879 
	C406.447784,274.094879 406.236359,273.921051 406.270569,273.403534 
	C406.164490,273.267059 406.058411,273.130554 405.895874,272.305756 
	C405.676636,271.908112 405.457397,271.510468 405.317993,270.553864 
	C404.903259,269.991760 404.488525,269.429626 403.988831,268.145660 
	C403.373322,266.090332 402.757812,264.035004 402.649719,261.748810 
	C403.132629,261.480255 403.615509,261.211731 404.374359,261.571259 
	C406.589172,264.645935 408.738586,267.770264 411.028656,270.787872 
	C444.478607,314.864258 488.963959,334.999390 544.014404,331.156769 
	C555.524658,330.353333 566.864319,327.105194 578.848389,324.878510 
	C581.555786,332.082428 584.697083,339.935791 587.421448,347.931213 
	C588.560669,351.274536 590.127869,352.552795 593.788147,352.508636 
	C611.113892,352.299622 628.443420,352.412445 645.771606,352.382507 
	C647.159241,352.380096 648.546509,352.164825 650.417419,352.007965 
	C649.554382,349.562439 648.938660,347.687134 648.235291,345.845276 
	C642.236328,330.134796 636.325195,314.389191 630.117676,298.761383 
	C628.972900,295.879425 629.507690,294.336426 631.594116,292.350525 
	C660.477173,264.858521 675.652283,231.169479 677.374268,191.303848 
	C681.241394,101.778648 604.606995,29.053688 515.743408,39.560173 
	C454.404724,46.812351 412.564026,80.612198 391.568115,138.910645 
	C382.181915,164.972916 381.990265,191.922333 387.237335,218.943954 
	C386.655396,218.914597 386.073425,218.885239 385.200043,218.347473 
	C385.171539,218.154205 385.143066,217.960953 385.132294,216.953537 
	C384.850433,216.504074 384.568604,216.054626 384.208191,215.337708 
	C384.014221,215.159103 383.820221,214.980484 383.602081,214.010498 
	C377.496765,198.310562 371.391418,182.610626 365.273895,166.185379 
	C364.392487,164.055832 363.511078,161.926270 362.552765,159.044174 
	C361.694611,157.032059 360.836456,155.019943 360.003571,152.268448 
	C358.654999,148.845642 357.306427,145.422821 355.964417,141.264694 
	C354.890320,138.481049 353.800476,135.703354 352.744995,132.912674 
	C349.171478,123.464256 349.176117,123.462502 338.102936,124.309181 
	C333.774689,124.290375 329.446442,124.254921 325.118195,124.256042 
	C314.296600,124.258835 303.474915,124.259567 292.653442,124.302948 
	C289.620148,124.315109 289.620422,124.381683 289.832611,127.814835 
	C291.594330,132.209229 293.356049,136.603638 295.076447,141.645386 
	C295.611969,142.803604 296.147491,143.961823 296.725739,145.889862 
	C298.831238,151.256165 300.936737,156.622467 303.000366,162.570206 
	C303.275635,163.064438 303.550934,163.558670 303.833649,164.815582 
	C306.211853,170.881317 308.590027,176.947037 310.946716,183.618759 
	C311.363373,184.526657 311.780060,185.434570 312.226562,187.041031 
	C312.921844,188.651642 313.617157,190.262268 314.351349,192.512283 
	C314.497131,192.668335 314.642883,192.824371 314.760925,193.547501 
	C314.884186,193.691132 315.007416,193.834747 315.102478,194.664200 
	C315.751526,196.111832 316.400574,197.559448 316.966217,199.527115 
	C317.141968,199.814346 317.317688,200.101578 317.518158,200.458527 
M326.187347,321.684845 
	C326.093628,321.364868 326.020538,321.037140 325.903290,320.726044 
	C290.841888,227.680923 255.761932,134.642776 220.782669,41.566795 
	C219.657425,38.572632 217.969208,38.089321 215.167023,38.108253 
	C196.668381,38.233269 178.168137,38.287258 159.669937,38.154331 
	C156.663086,38.132725 155.217438,39.049641 154.191254,41.834740 
	C149.067444,55.741047 143.785492,69.589264 138.529175,83.446548 
	C107.813034,164.423950 77.086746,245.397507 46.378624,326.377930 
	C45.705219,328.153778 45.207314,329.996155 44.400440,332.517059 
	C64.208275,332.517059 83.178177,332.407837 102.144699,332.612000 
	C105.804802,332.651428 107.260559,331.380585 108.494202,328.073364 
	C133.931335,259.880066 159.494720,191.733917 185.040222,123.581085 
	C185.685486,121.859550 186.411301,120.168190 187.621277,117.169945 
	C207.351120,170.180481 226.546982,221.756317 246.021912,274.081970 
	C242.493988,274.081970 240.025513,274.081543 237.557022,274.082062 
	C215.057526,274.086578 192.557617,274.036774 170.059311,274.203217 
	C168.329544,274.216003 165.567810,275.339905 165.049591,276.646790 
	C160.146332,289.012421 155.625809,301.529816 150.501953,314.512268 
	C148.269379,320.309692 146.036789,326.107086 143.753540,332.036072 
	C206.228165,332.036072 268.043091,332.036072 330.436066,332.036072 
	C328.822540,328.413757 327.482208,325.404846 326.187347,321.684845 
M287.536194,90.826279 
	C304.085327,90.826279 320.634430,90.826279 337.232422,90.826279 
	C337.232422,89.878326 337.325500,89.521408 337.219086,89.239876 
	C331.109558,73.075287 325.067352,56.883728 318.704590,40.819157 
	C318.177826,39.489258 315.475586,38.284676 313.773651,38.270432 
	C296.644379,38.127048 279.512939,38.245075 262.382111,38.288345 
	C260.650116,38.292721 258.918121,38.288937 256.663788,38.288937 
	C257.380249,40.437611 257.791443,41.833920 258.306732,43.190689 
	C263.086456,55.775860 267.938812,68.333733 272.658966,80.941147 
	C276.346008,90.789185 276.275909,90.815430 287.536194,90.826279 
z"/>
<path fill="#1A295B" opacity="1.000000" stroke="none" 
	d="
M387.823181,218.928436 
	C381.990265,191.922333 382.181915,164.972916 391.568115,138.910645 
	C412.564026,80.612198 454.404724,46.812351 515.743408,39.560173 
	C604.606995,29.053688 681.241394,101.778648 677.374268,191.303848 
	C675.652283,231.169479 660.477173,264.858521 631.594116,292.350525 
	C629.507690,294.336426 628.972900,295.879425 630.117676,298.761383 
	C636.325195,314.389191 642.236328,330.134796 648.235291,345.845276 
	C648.938660,347.687134 649.554382,349.562439 650.417419,352.007965 
	C648.546509,352.164825 647.159241,352.380096 645.771606,352.382507 
	C628.443420,352.412445 611.113892,352.299622 593.788147,352.508636 
	C590.127869,352.552795 588.560669,351.274536 587.421448,347.931213 
	C584.697083,339.935791 581.555786,332.082428 578.848389,324.878510 
	C566.864319,327.105194 555.524658,330.353333 544.014404,331.156769 
	C488.963959,334.999390 444.478607,314.864258 411.028656,270.787872 
	C408.738586,267.770264 406.589172,264.645935 404.287811,260.889038 
	C402.479950,256.778198 400.758606,253.349564 399.221588,249.666443 
	C399.830261,248.931686 400.679810,248.096420 400.617798,248.022156 
	C398.065826,244.965454 400.210052,243.296524 402.932983,241.494202 
	C398.193909,242.121658 394.794281,241.838760 394.729645,236.078110 
	C394.714142,234.696976 392.270142,233.343079 391.005981,231.568634 
	C389.987000,227.083221 388.905090,223.005829 387.823181,218.928436 
M454.087158,229.330994 
	C463.198608,245.068207 475.876862,257.190033 492.253418,264.926666 
	C547.398376,290.978210 609.842651,257.095154 618.381042,196.720795 
	C627.515198,132.134827 563.643188,79.902832 501.975433,101.528801 
	C449.700226,119.860939 427.409180,178.616608 454.087158,229.330994 
z"/>
<path fill="#1A295B" opacity="1.000000" stroke="none" 
	d="
M150.995041,314.003479 
	C155.625809,301.529816 160.146332,289.012421 165.049591,276.646790 
	C165.567810,275.339905 168.329544,274.216003 170.059311,274.203217 
	C192.557617,274.036774 215.057526,274.086578 237.557022,274.082062 
	C240.025513,274.081543 242.493988,274.081970 246.021912,274.081970 
	C226.546982,221.756317 207.351120,170.180481 187.621277,117.169945 
	C186.411301,120.168190 185.685486,121.859550 185.040222,123.581085 
	C159.494720,191.733917 133.931335,259.880066 108.494202,328.073364 
	C107.260559,331.380585 105.804802,332.651428 102.144699,332.612000 
	C83.178177,332.407837 64.208275,332.517059 44.400440,332.517059 
	C45.207314,329.996155 45.705219,328.153778 46.378624,326.377930 
	C77.086746,245.397507 107.813034,164.423950 138.529175,83.446548 
	C143.785492,69.589264 149.067444,55.741047 154.191254,41.834740 
	C155.217438,39.049641 156.663086,38.132725 159.669937,38.154331 
	C178.168137,38.287258 196.668381,38.233269 215.167023,38.108253 
	C217.969208,38.089321 219.657425,38.572632 220.782669,41.566795 
	C255.761932,134.642776 290.841888,227.680923 325.903290,320.726044 
	C326.020538,321.037140 326.093628,321.364868 326.128052,322.523987 
	C326.068756,325.743988 326.068756,328.124847 326.068756,330.002441 
	C322.604858,330.002441 320.139709,330.002441 317.674561,330.002441 
	C265.613708,330.002441 213.552841,329.991608 161.492035,330.036255 
	C159.035278,330.038361 156.576218,330.761017 154.123230,330.731628 
	C151.930481,330.705322 149.744644,330.102722 147.555756,329.754425 
	C148.204636,327.655090 148.464767,325.313293 149.589096,323.510498 
	C151.505920,320.437042 153.117752,317.568207 150.995041,314.003479 
z"/>
<path fill="#1A295B" opacity="1.000000" stroke="none" 
	d="
M412.325256,289.979767 
	C412.325256,289.979767 412.534210,290.098053 412.404877,290.625488 
	C412.247009,291.748260 412.218475,292.343658 411.812134,292.988586 
	C407.085693,295.928009 406.545166,297.854553 410.314056,300.785522 
	C413.823456,303.514740 414.358551,306.694733 414.041077,310.601013 
	C413.906189,312.260681 414.222534,313.957031 414.347351,315.841278 
	C416.794037,315.041382 418.503296,314.482605 420.412628,314.109436 
	C420.769012,314.809357 420.925323,315.323639 421.020386,316.227478 
	C420.300629,318.948547 419.914886,321.408752 418.894775,323.569519 
	C418.122253,325.205872 416.541138,327.694580 415.318787,327.695221 
	C401.881714,327.702087 388.444214,327.303070 375.007324,326.993042 
	C372.542328,326.936157 370.217865,327.006012 369.583984,330.057251 
	C368.098785,329.216034 366.869873,328.550507 365.640930,327.884979 
	C365.510101,327.701111 365.379303,327.517212 365.233063,326.767426 
	C365.001221,325.809418 364.784760,325.417297 364.568298,325.025177 
	C364.457581,324.871460 364.346863,324.717773 364.537964,324.218201 
	C363.764832,321.564514 362.689880,319.256714 361.614929,316.948914 
	C361.614929,316.948914 361.609528,316.841217 361.722534,316.401611 
	C361.434906,315.343323 361.034241,314.724609 360.633575,314.105927 
	C359.605469,311.562775 358.577393,309.019623 357.644287,305.785645 
	C357.459778,304.740021 357.180298,304.385223 356.900848,304.030396 
	C356.534088,303.259186 356.167328,302.487976 356.178955,301.378357 
	C358.079224,302.237152 359.601105,303.434387 361.295410,304.767303 
	C363.114258,302.144440 363.488403,297.507660 368.517059,299.491608 
	C368.707092,299.566528 369.640106,298.363678 369.868835,297.642670 
	C372.532104,289.248352 369.496277,285.018555 360.862122,285.000092 
	C360.529785,284.999390 360.195831,284.978668 359.865326,285.003143 
	C355.775421,285.306000 353.577728,283.835083 352.740082,279.396576 
	C352.029358,275.630890 349.900970,272.132782 348.031647,267.628967 
	C349.939240,263.782471 349.109283,259.429382 345.537659,257.427612 
	C343.822418,258.776367 342.249603,260.013123 340.676788,261.249847 
	C340.676788,261.249847 340.789398,261.074585 340.819580,260.829834 
	C340.498016,260.042999 340.146301,259.500854 339.794586,258.958710 
	C339.794586,258.958710 339.732269,258.836395 339.757843,258.444031 
	C339.534851,257.703278 339.286285,257.354858 339.037720,257.006470 
	C338.924011,256.882782 338.810303,256.759064 339.010803,256.180176 
	C339.720825,254.828537 339.920013,253.752853 340.545959,253.066254 
	C343.438629,249.893387 343.784760,247.328003 340.376343,243.868851 
	C337.971130,241.427795 337.551605,237.559723 340.323029,234.488480 
	C342.741852,231.807999 341.827515,229.598663 339.548645,226.603760 
	C338.731812,228.288376 338.471191,229.743271 337.602692,230.436188 
	C335.443024,232.159195 335.084961,236.681564 330.709808,235.093964 
	C330.067200,233.646713 329.424591,232.199478 329.113953,230.504608 
	C330.732452,230.770172 332.018982,231.283356 333.581512,231.906631 
	C334.643005,225.345810 330.329865,228.275803 327.975464,228.008438 
	C326.997314,225.578232 326.019196,223.148041 325.205658,220.230331 
	C325.152740,219.527344 324.935211,219.311859 324.717712,219.096359 
	C324.440918,218.601456 324.164093,218.106567 324.234467,217.177826 
	C325.131714,215.331360 326.182678,213.900772 326.132812,212.509628 
	C326.010132,209.085159 325.399139,205.676498 324.947144,202.266418 
	C324.778198,200.991913 324.505737,199.731125 324.280487,198.464081 
	C322.912537,198.721924 321.518555,198.888504 320.185425,199.268524 
	C319.242188,199.537430 318.381287,200.095184 317.483643,200.523987 
	C317.483643,200.523987 317.518158,200.458527 317.590881,200.160278 
	C317.458923,199.577042 317.254272,199.292053 317.049622,199.007065 
	C316.400574,197.559448 315.751526,196.111832 315.262146,194.192444 
	C315.210754,193.473938 314.999695,193.227173 314.788666,192.980408 
	C314.642883,192.824371 314.497131,192.668335 314.810150,192.232025 
	C316.812042,191.414703 319.388123,191.194031 319.670837,190.270950 
	C320.171326,188.636841 319.277496,186.575623 318.967133,184.693146 
	C317.345978,185.069260 315.723145,185.438522 314.104462,185.824905 
	C313.463837,185.977814 312.832367,186.168823 312.196716,186.342468 
	C311.780060,185.434570 311.363373,184.526657 311.216156,183.096329 
	C311.935211,179.423157 313.590240,175.784897 312.558289,173.233353 
	C310.917664,169.176834 312.475739,165.941910 312.801819,162.273956 
	C313.329926,156.334320 313.063782,150.313171 312.895386,144.333130 
	C312.867157,143.330124 311.639984,142.360886 310.966766,141.376053 
	C310.579010,142.542831 309.988342,143.684036 309.837494,144.880692 
	C309.055511,151.082748 308.554352,157.324860 307.606201,163.499390 
	C307.131226,166.592468 305.310760,165.297821 303.826202,164.052902 
	C303.550934,163.558670 303.275635,163.064438 303.389893,162.203156 
	C304.188995,156.719315 304.823212,151.604980 304.879730,146.484283 
	C304.898163,144.814636 303.410248,143.128372 302.611237,141.449738 
	C301.355286,142.326691 300.121887,143.238754 298.834076,144.066132 
	C298.166809,144.494858 297.403168,144.773575 296.683044,145.120056 
	C296.147491,143.961823 295.611969,142.803604 295.462097,141.313141 
	C297.085724,138.795242 299.527588,136.482941 299.313751,134.449997 
	C298.853607,130.075439 294.179535,127.001396 289.872162,127.046181 
	C289.620422,124.381683 289.620148,124.315109 292.653442,124.302948 
	C303.474915,124.259567 314.296600,124.258835 325.118195,124.256042 
	C329.446442,124.254921 333.774689,124.290375 338.662903,124.755356 
	C340.984161,129.417130 344.726959,130.502731 349.064270,130.479462 
	C344.647583,139.575897 346.162201,141.998230 355.458649,142.000000 
	C355.625061,142.000031 355.791443,142.000015 355.957855,142.000015 
	C357.306427,145.422821 358.654999,148.845642 359.675171,152.798065 
	C357.387817,155.114990 352.672913,155.594986 356.067139,159.796707 
	C358.343658,159.796707 360.486664,159.796707 362.629669,159.796707 
	C363.511078,161.926270 364.392487,164.055832 364.907227,166.597443 
	C360.352539,168.744827 358.445526,171.801376 358.999695,176.372009 
	C359.748962,182.551880 365.675507,179.641113 368.349884,181.608673 
	C370.295776,192.067825 369.219452,202.312943 368.977783,212.854721 
	C374.312073,213.563797 378.969177,214.182831 383.626251,214.801880 
	C383.820221,214.980484 384.014221,215.159103 384.185059,215.713943 
	C384.479492,216.649368 384.797058,217.208542 385.114624,217.767715 
	C385.143066,217.960953 385.171539,218.154205 385.334564,218.992188 
	C385.923615,221.144913 386.378143,222.652939 386.350159,224.115814 
	C384.920471,224.900818 383.153748,225.740829 383.163635,226.559418 
	C383.214966,230.815384 383.652344,235.073563 384.139618,239.309723 
	C384.209991,239.921524 385.277466,240.418640 386.717072,241.725586 
	C386.314056,237.255463 385.813293,233.906586 385.842163,230.562286 
	C385.849945,229.659836 387.464233,228.771271 388.525818,228.083435 
	C388.880341,229.008698 389.050171,229.726868 389.087555,230.798279 
	C389.661255,233.057373 390.279510,235.001602 391.091064,236.861511 
	C393.011139,241.262024 395.023041,245.622452 397.050903,250.339554 
	C397.781067,252.358459 398.458099,254.036911 399.003784,256.036072 
	C399.344971,257.168091 399.817535,257.979401 400.293396,258.807129 
	C400.296692,258.823547 400.321228,258.792603 400.119232,259.125122 
	C398.319611,262.746002 395.045135,265.986237 398.100922,269.778778 
	C400.180939,272.360291 400.187195,274.164917 398.251007,276.690216 
	C396.536316,278.926544 397.031525,280.731628 400.262360,280.994781 
	C401.371521,281.085083 402.470428,281.301514 403.159821,281.400726 
	C404.462128,284.827026 405.602875,287.828186 406.829742,291.055969 
	C408.830688,290.664124 410.577972,290.321930 412.325256,289.979767 
M395.678802,253.389542 
	C393.443817,251.404541 391.208801,249.419525 388.106415,246.664154 
	C388.106415,249.959564 387.370514,252.704819 388.316711,254.618256 
	C389.233124,256.471466 391.879517,257.469208 393.766052,258.842682 
	C394.336182,257.242981 394.906281,255.643295 395.678802,253.389542 
M355.706604,169.631409 
	C356.092102,168.662888 356.477570,167.694351 356.863068,166.725815 
	C356.277954,166.601639 355.692871,166.477448 355.107758,166.353271 
	C355.107758,167.363983 355.107758,168.374680 355.706604,169.631409 
M364.433929,315.704712 
	C364.705566,315.989319 364.977203,316.273895 365.248840,316.558502 
	C365.366608,316.445862 365.593018,316.241516 365.586517,316.233826 
	C365.333038,315.933685 365.058289,315.651459 364.433929,315.704712 
M368.704712,310.566101 
	C368.989319,310.294464 369.273956,310.022858 369.558563,309.751221 
	C369.445923,309.633453 369.241547,309.407074 369.233887,309.413544 
	C368.933716,309.667023 368.651459,309.941742 368.704712,310.566101 
z"/>
<path fill="#1D2C5C" opacity="1.000000" stroke="none" 
	d="
M287.043945,90.826294 
	C276.275909,90.815430 276.346008,90.789185 272.658966,80.941147 
	C267.938812,68.333733 263.086456,55.775860 258.306732,43.190689 
	C257.791443,41.833920 257.380249,40.437611 256.663788,38.288937 
	C258.918121,38.288937 260.650116,38.292721 262.382111,38.288345 
	C279.512939,38.245075 296.644379,38.127048 313.773651,38.270432 
	C315.475586,38.284676 318.177826,39.489258 318.704590,40.819157 
	C325.067352,56.883728 331.109558,73.075287 337.219086,89.239876 
	C337.325500,89.521408 337.232422,89.878326 337.232422,90.826279 
	C320.634430,90.826279 304.085327,90.826279 287.043945,90.826294 
z"/>
<path fill="#1F2D50" opacity="1.000000" stroke="none" 
	d="
M150.748505,314.257874 
	C153.117752,317.568207 151.505920,320.437042 149.589096,323.510498 
	C148.464767,325.313293 148.204636,327.655090 147.555756,329.754425 
	C149.744644,330.102722 151.930481,330.705322 154.123230,330.731628 
	C156.576218,330.761017 159.035278,330.038361 161.492035,330.036255 
	C213.552841,329.991608 265.613708,330.002441 317.674561,330.002441 
	C320.139709,330.002441 322.604858,330.002441 326.068756,330.002441 
	C326.068756,328.124847 326.068756,325.743988 326.105347,322.879517 
	C327.482208,325.404846 328.822540,328.413757 330.436066,332.036072 
	C268.043091,332.036072 206.228165,332.036072 143.753540,332.036072 
	C146.036789,326.107086 148.269379,320.309692 150.748505,314.257874 
z"/>
<path fill="#1A2A5B" opacity="1.000000" stroke="none" 
	d="
M340.694885,261.625092 
	C342.249603,260.013123 343.822418,258.776367 345.537659,257.427612 
	C349.109283,259.429382 349.939240,263.782471 348.031647,267.628967 
	C349.900970,272.132782 352.029358,275.630890 352.740082,279.396576 
	C353.577728,283.835083 355.775421,285.306000 359.865326,285.003143 
	C360.195831,284.978668 360.529785,284.999390 360.862122,285.000092 
	C369.496277,285.018555 372.532104,289.248352 369.868835,297.642670 
	C369.640106,298.363678 368.707092,299.566528 368.517059,299.491608 
	C363.488403,297.507660 363.114258,302.144440 361.295410,304.767303 
	C359.601105,303.434387 358.079224,302.237152 356.177643,301.050659 
	C350.769592,288.041046 345.741272,275.020691 340.694885,261.625092 
z"/>
<path fill="#1A2A5B" opacity="1.000000" stroke="none" 
	d="
M383.614166,214.406189 
	C378.969177,214.182831 374.312073,213.563797 368.977783,212.854721 
	C369.219452,202.312943 370.295776,192.067825 368.349884,181.608673 
	C365.675507,179.641113 359.748962,182.551880 358.999695,176.372009 
	C358.445526,171.801376 360.352539,168.744827 364.913330,166.960114 
	C371.391418,182.610626 377.496765,198.310562 383.614166,214.406189 
z"/>
<path fill="#1A2A5B" opacity="1.000000" stroke="none" 
	d="
M369.840271,330.232910 
	C370.217865,327.006012 372.542328,326.936157 375.007324,326.993042 
	C388.444214,327.303070 401.881714,327.702087 415.318787,327.695221 
	C416.541138,327.694580 418.122253,325.205872 418.894775,323.569519 
	C419.914886,321.408752 420.300629,318.948547 421.248230,316.288208 
	C421.831207,316.098938 422.139404,316.147461 422.461975,316.104950 
	C422.736511,316.672455 423.011047,317.239960 423.233704,318.439911 
	C423.620392,319.747314 424.058899,320.422302 424.497437,321.097260 
	C424.606232,321.272736 424.714996,321.448212 424.804077,322.194214 
	C425.170532,323.512939 425.556702,324.261200 425.942871,325.009430 
	C426.162018,325.263977 426.321777,325.551514 426.331879,326.494904 
	C426.934967,330.082947 425.769745,331.125305 422.737244,331.197479 
	C418.794220,331.291290 414.864014,331.924469 410.928314,332.325562 
	C397.610382,332.385040 384.292480,332.444519 370.463715,332.074463 
	C369.915344,331.174286 369.877808,330.703583 369.840271,330.232910 
z"/>
<path fill="#1A2A5B" opacity="1.000000" stroke="none" 
	d="
M412.319641,289.592224 
	C410.577972,290.321930 408.830688,290.664124 406.829742,291.055969 
	C405.602875,287.828186 404.462128,284.827026 403.159821,281.400726 
	C402.470428,281.301514 401.371521,281.085083 400.262360,280.994781 
	C397.031525,280.731628 396.536316,278.926544 398.251007,276.690216 
	C400.187195,274.164917 400.180939,272.360291 398.100922,269.778778 
	C395.045135,265.986237 398.319611,262.746002 400.320251,259.364319 
	C401.196289,260.173859 401.669281,261.076782 402.142303,261.979675 
	C402.757812,264.035004 403.373322,266.090332 404.010681,268.784515 
	C404.434387,269.986542 404.836273,270.549683 405.238159,271.112823 
	C405.457397,271.510468 405.676636,271.908112 405.770355,272.763245 
	C405.842010,273.454193 406.039185,273.687622 406.236359,273.921051 
	C406.236359,273.921051 406.447784,274.094879 406.343323,274.610260 
	C406.808685,276.089325 407.378510,277.053009 407.948334,278.016693 
	C408.569794,279.463684 409.191254,280.910706 409.633850,282.879211 
	C410.109344,284.628540 410.763702,285.856293 411.418091,287.084076 
	C411.716736,287.790955 412.015381,288.497833 412.319641,289.592224 
z"/>
<path fill="#1A2A5B" opacity="1.000000" stroke="none" 
	d="
M303.829926,164.434235 
	C305.310760,165.297821 307.131226,166.592468 307.606201,163.499390 
	C308.554352,157.324860 309.055511,151.082748 309.837494,144.880692 
	C309.988342,143.684036 310.579010,142.542831 310.966766,141.376053 
	C311.639984,142.360886 312.867157,143.330124 312.895386,144.333130 
	C313.063782,150.313171 313.329926,156.334320 312.801819,162.273956 
	C312.475739,165.941910 310.917664,169.176834 312.558289,173.233353 
	C313.590240,175.784897 311.935211,179.423157 311.226929,182.793335 
	C308.590027,176.947037 306.211853,170.881317 303.829926,164.434235 
z"/>
<path fill="#1A2A5B" opacity="1.000000" stroke="none" 
	d="
M330.728912,235.477844 
	C335.084961,236.681564 335.443024,232.159195 337.602692,230.436188 
	C338.471191,229.743271 338.731812,228.288376 339.548645,226.603760 
	C341.827515,229.598663 342.741852,231.807999 340.323029,234.488480 
	C337.551605,237.559723 337.971130,241.427795 340.376343,243.868851 
	C343.784760,247.328003 343.438629,249.893387 340.545959,253.066254 
	C339.920013,253.752853 339.720825,254.828537 339.011353,255.928162 
	C336.047760,249.374802 333.397888,242.618256 330.728912,235.477844 
z"/>
<path fill="#1A2A5B" opacity="1.000000" stroke="none" 
	d="
M355.961121,141.632355 
	C355.791443,142.000015 355.625061,142.000031 355.458649,142.000000 
	C346.162201,141.998230 344.647583,139.575897 349.064270,130.479462 
	C344.726959,130.502731 340.984161,129.417130 339.110596,124.897491 
	C349.176117,123.462502 349.171478,123.464256 352.744995,132.912674 
	C353.800476,135.703354 354.890320,138.481049 355.961121,141.632355 
z"/>
<path fill="#1A2A5B" opacity="1.000000" stroke="none" 
	d="
M420.212524,313.923828 
	C418.503296,314.482605 416.794037,315.041382 414.347351,315.841278 
	C414.222534,313.957031 413.906189,312.260681 414.041077,310.601013 
	C414.358551,306.694733 413.823456,303.514740 410.314056,300.785522 
	C406.545166,297.854553 407.085693,295.928009 412.012177,293.155823 
	C413.180969,293.882690 413.771881,294.491852 414.362793,295.101013 
	C414.493164,295.307404 414.623566,295.513763 414.799591,296.112976 
	C414.845184,296.505829 414.911530,296.613983 414.911530,296.613983 
	C415.177460,297.123901 415.443390,297.633820 415.654175,298.682007 
	C415.794739,299.445068 415.990356,299.669861 416.185974,299.894653 
	C416.394836,300.204468 416.603699,300.514252 416.806885,301.178101 
	C416.801208,301.532104 416.998627,301.761292 416.998627,301.761292 
	C417.259064,302.237427 417.519501,302.713562 417.697083,303.705353 
	C417.812317,304.457184 418.010437,304.693390 418.208557,304.929596 
	C418.208557,304.929596 418.415192,305.126617 418.315430,305.669830 
	C418.881256,308.783295 419.546875,311.353577 420.212524,313.923828 
z"/>
<path fill="#1A2A5B" opacity="1.000000" stroke="none" 
	d="
M296.704407,145.504959 
	C297.403168,144.773575 298.166809,144.494858 298.834076,144.066132 
	C300.121887,143.238754 301.355286,142.326691 302.611237,141.449738 
	C303.410248,143.128372 304.898163,144.814636 304.879730,146.484283 
	C304.823212,151.604980 304.188995,156.719315 303.410828,161.912445 
	C300.936737,156.622467 298.831238,151.256165 296.704407,145.504959 
z"/>
<path fill="#1A2A5B" opacity="1.000000" stroke="none" 
	d="
M317.528442,200.882843 
	C318.381287,200.095184 319.242188,199.537430 320.185425,199.268524 
	C321.518555,198.888504 322.912537,198.721924 324.280487,198.464081 
	C324.505737,199.731125 324.778198,200.991913 324.947144,202.266418 
	C325.399139,205.676498 326.010132,209.085159 326.132812,212.509628 
	C326.182678,213.900772 325.131714,215.331360 324.258972,216.884476 
	C321.815277,211.763870 319.694244,206.502792 317.528442,200.882843 
z"/>
<path fill="#1A2A5B" opacity="1.000000" stroke="none" 
	d="
M289.852386,127.430511 
	C294.179535,127.001396 298.853607,130.075439 299.313751,134.449997 
	C299.527588,136.482941 297.085724,138.795242 295.482758,140.989471 
	C293.356049,136.603638 291.594330,132.209229 289.852386,127.430511 
z"/>
<path fill="#1A2A5B" opacity="1.000000" stroke="none" 
	d="
M312.211639,186.691742 
	C312.832367,186.168823 313.463837,185.977814 314.104462,185.824905 
	C315.723145,185.438522 317.345978,185.069260 318.967133,184.693146 
	C319.277496,186.575623 320.171326,188.636841 319.670837,190.270950 
	C319.388123,191.194031 316.812042,191.414703 314.790710,191.912323 
	C313.617157,190.262268 312.921844,188.651642 312.211639,186.691742 
z"/>
<path fill="#485471" opacity="1.000000" stroke="none" 
	d="
M411.302246,332.497681 
	C414.864014,331.924469 418.794220,331.291290 422.737244,331.197479 
	C425.769745,331.125305 426.934967,330.082947 426.375824,326.739044 
	C427.274414,328.117737 428.038727,329.875183 429.254150,332.669830 
	C422.910889,332.669830 417.293518,332.669830 411.302246,332.497681 
z"/>
<path fill="#1A2A5B" opacity="1.000000" stroke="none" 
	d="
M362.591217,159.420441 
	C360.486664,159.796707 358.343658,159.796707 356.067139,159.796707 
	C352.672913,155.594986 357.387817,155.114990 359.662537,153.167755 
	C360.836456,155.019943 361.694611,157.032059 362.591217,159.420441 
z"/>
<path fill="#C2CAE5" opacity="1.000000" stroke="none" 
	d="
M402.395996,261.864258 
	C401.669281,261.076782 401.196289,260.173859 400.522247,259.031799 
	C400.321228,258.792603 400.296692,258.823547 400.277710,258.470612 
	C399.884186,257.316895 399.509674,256.516144 399.135162,255.715347 
	C398.458099,254.036911 397.781067,252.358459 397.388733,250.283508 
	C398.128021,249.898300 398.582672,249.909607 399.037292,249.920914 
	C400.758606,253.349564 402.479950,256.778198 404.149841,260.575012 
	C403.615509,261.211731 403.132629,261.480255 402.395996,261.864258 
z"/>
<path fill="#B8C5DF" opacity="1.000000" stroke="none" 
	d="
M389.220001,230.445053 
	C389.050171,229.726868 388.880341,229.008698 388.486694,227.783401 
	C387.786163,226.237839 387.309418,225.199402 386.832703,224.160950 
	C386.378143,222.652939 385.923615,221.144913 385.480286,219.246399 
	C386.073425,218.885239 386.655396,218.914597 387.530273,218.936188 
	C388.905090,223.005829 389.987000,227.083221 390.709534,231.504883 
	C389.973419,231.381119 389.596710,230.913086 389.220001,230.445053 
z"/>
<path fill="#1A2A5B" opacity="1.000000" stroke="none" 
	d="
M327.947083,228.298950 
	C330.329865,228.275803 334.643005,225.345810 333.581512,231.906631 
	C332.018982,231.283356 330.732452,230.770172 329.098572,230.157730 
	C328.473755,229.568787 328.196259,229.079117 327.947083,228.298950 
z"/>
<path fill="#485471" opacity="1.000000" stroke="none" 
	d="
M420.412628,314.109436 
	C419.546875,311.353577 418.881256,308.783295 418.314941,305.812592 
	C419.767303,308.734497 421.120331,312.056854 422.467651,315.742065 
	C422.139404,316.147461 421.831207,316.098938 421.309509,315.898621 
	C420.925323,315.323639 420.769012,314.809357 420.412628,314.109436 
z"/>
<path fill="#485471" opacity="1.000000" stroke="none" 
	d="
M369.583984,330.057251 
	C369.877808,330.703583 369.915344,331.174286 370.003784,331.997620 
	C366.517426,333.503296 365.977448,331.121185 365.614075,328.223755 
	C366.869873,328.550507 368.098785,329.216034 369.583984,330.057251 
z"/>
<path fill="#1A2A5B" opacity="1.000000" stroke="none" 
	d="
M361.635193,317.335266 
	C362.689880,319.256714 363.764832,321.564514 364.530975,323.934143 
	C363.366608,321.904510 362.511047,319.813080 361.635193,317.335266 
z"/>
<path fill="#485471" opacity="1.000000" stroke="none" 
	d="
M411.441254,286.766815 
	C410.763702,285.856293 410.109344,284.628540 409.665466,283.215393 
	C410.405487,284.169861 410.934937,285.309723 411.441254,286.766815 
z"/>
<path fill="#485471" opacity="1.000000" stroke="none" 
	d="
M414.390961,294.778046 
	C413.771881,294.491852 413.180969,293.882690 412.390015,293.106262 
	C412.218475,292.343658 412.247009,291.748260 412.448181,290.737427 
	C413.220215,291.699677 413.819672,293.077393 414.390961,294.778046 
z"/>
<path fill="#485471" opacity="1.000000" stroke="none" 
	d="
M407.956055,277.679199 
	C407.378510,277.053009 406.808685,276.089325 406.355316,274.746582 
	C406.969116,275.358948 407.466461,276.350311 407.956055,277.679199 
z"/>
<path fill="#485471" opacity="1.000000" stroke="none" 
	d="
M425.975952,324.701477 
	C425.556702,324.261200 425.170532,323.512939 424.835022,322.502380 
	C425.260162,322.957855 425.634583,323.675659 425.975952,324.701477 
z"/>
<path fill="#485471" opacity="1.000000" stroke="none" 
	d="
M424.481018,320.800049 
	C424.058899,320.422302 423.620392,319.747314 423.289642,318.753021 
	C423.753174,319.123383 424.108917,319.813110 424.481018,320.800049 
z"/>
<path fill="#485471" opacity="1.000000" stroke="none" 
	d="
M405.278076,270.833344 
	C404.836273,270.549683 404.434387,269.986542 404.053162,269.145447 
	C404.488525,269.429626 404.903259,269.991760 405.278076,270.833344 
z"/>
<path fill="#1A2A5B" opacity="1.000000" stroke="none" 
	d="
M360.645264,314.480774 
	C361.034241,314.724609 361.434906,315.343323 361.764435,316.367676 
	C361.347870,316.134064 361.002441,315.494843 360.645264,314.480774 
z"/>
<path fill="#485471" opacity="1.000000" stroke="none" 
	d="
M364.523682,325.254333 
	C364.784760,325.417297 365.001221,325.809418 365.177917,326.433411 
	C364.918518,326.271362 364.698822,325.877411 364.523682,325.254333 
z"/>
<path fill="#B8C5DF" opacity="1.000000" stroke="none" 
	d="
M385.123474,217.360626 
	C384.797058,217.208542 384.479492,216.649368 384.224365,215.847687 
	C384.568604,216.054626 384.850433,216.504074 385.123474,217.360626 
z"/>
<path fill="#1A2A5B" opacity="1.000000" stroke="none" 
	d="
M339.782227,259.289001 
	C340.146301,259.500854 340.498016,260.042999 340.792297,260.930359 
	C340.413177,260.723511 340.091553,260.171387 339.782227,259.289001 
z"/>
<path fill="#485471" opacity="1.000000" stroke="none" 
	d="
M418.229980,304.666626 
	C418.010437,304.693390 417.812317,304.457184 417.766541,304.107483 
	C418.029724,304.130554 418.140564,304.267120 418.229980,304.666626 
z"/>
<path fill="#1A2A5B" opacity="1.000000" stroke="none" 
	d="
M339.034241,257.341156 
	C339.286285,257.354858 339.534851,257.703278 339.790771,258.383850 
	C339.542328,258.369293 339.286560,258.022552 339.034241,257.341156 
z"/>
<path fill="#1A2A5B" opacity="1.000000" stroke="none" 
	d="
M356.899506,304.378784 
	C357.180298,304.385223 357.459778,304.740021 357.720703,305.448853 
	C357.434174,305.444275 357.166168,305.085724 356.899506,304.378784 
z"/>
<path fill="#485471" opacity="1.000000" stroke="none" 
	d="
M417.114075,301.706482 
	C416.998627,301.761292 416.801208,301.532104 416.839050,301.460327 
	C416.876923,301.388550 417.134064,301.412476 417.134064,301.412476 
	C417.134064,301.412476 417.229553,301.651642 417.114075,301.706482 
z"/>
<path fill="#485471" opacity="1.000000" stroke="none" 
	d="
M416.198975,299.638977 
	C415.990356,299.669861 415.794739,299.445068 415.742615,299.104309 
	C415.994720,299.119995 416.103363,299.251648 416.198975,299.638977 
z"/>
<path fill="#1A2A5B" opacity="1.000000" stroke="none" 
	d="
M324.709106,219.357590 
	C324.935211,219.311859 325.152740,219.527344 325.220337,219.865509 
	C324.947083,219.865082 324.823792,219.741943 324.709106,219.357590 
z"/>
<path fill="#485471" opacity="1.000000" stroke="none" 
	d="
M415.017853,296.664001 
	C414.911530,296.613983 414.845184,296.505829 414.855072,296.474945 
	C414.864960,296.444061 415.124176,296.714020 415.017853,296.664001 
z"/>
<path fill="#485471" opacity="1.000000" stroke="none" 
	d="
M406.253479,273.662292 
	C406.039185,273.687622 405.842010,273.454193 405.798584,273.107391 
	C406.058411,273.130554 406.164490,273.267059 406.253479,273.662292 
z"/>
<path fill="#1A2A5B" opacity="1.000000" stroke="none" 
	d="
M317.007935,199.267090 
	C317.254272,199.292053 317.458923,199.577042 317.578491,200.125427 
	C317.317688,200.101578 317.141968,199.814346 317.007935,199.267090 
z"/>
<path fill="#1A2A5B" opacity="1.000000" stroke="none" 
	d="
M314.774780,193.263947 
	C314.999695,193.227173 315.210754,193.473938 315.276215,193.849548 
	C315.007416,193.834747 314.884186,193.691132 314.774780,193.263947 
z"/>
<path fill="#FEFEFE" opacity="1.000000" stroke="none" 
	d="
M453.911285,229.006439 
	C427.409180,178.616608 449.700226,119.860939 501.975433,101.528801 
	C563.643188,79.902832 627.515198,132.134827 618.381042,196.720795 
	C609.842651,257.095154 547.398376,290.978210 492.253418,264.926666 
	C475.876862,257.190033 463.198608,245.068207 453.911285,229.006439 
z"/>
<path fill="#1A2A5B" opacity="1.000000" stroke="none" 
	d="
M389.087555,230.798279 
	C389.596710,230.913086 389.973419,231.381119 390.646606,231.912903 
	C392.270142,233.343079 394.714142,234.696976 394.729645,236.078110 
	C394.794281,241.838760 398.193909,242.121658 402.932983,241.494202 
	C400.210052,243.296524 398.065826,244.965454 400.617798,248.022156 
	C400.679810,248.096420 399.830261,248.931686 399.221588,249.666443 
	C398.582672,249.909607 398.128021,249.898300 397.335602,249.943054 
	C395.023041,245.622452 393.011139,241.262024 391.091064,236.861511 
	C390.279510,235.001602 389.661255,233.057373 389.087555,230.798279 
z"/>
<path fill="#1A2A5B" opacity="1.000000" stroke="none" 
	d="
M395.577606,253.716583 
	C394.906281,255.643295 394.336182,257.242981 393.766052,258.842682 
	C391.879517,257.469208 389.233124,256.471466 388.316711,254.618256 
	C387.370514,252.704819 388.106415,249.959564 388.106415,246.664154 
	C391.208801,249.419525 393.443817,251.404541 395.577606,253.716583 
z"/>
<path fill="#1A2A5B" opacity="1.000000" stroke="none" 
	d="
M386.350159,224.115814 
	C387.309418,225.199402 387.786163,226.237839 388.302002,227.576294 
	C387.464233,228.771271 385.849945,229.659836 385.842163,230.562286 
	C385.813293,233.906586 386.314056,237.255463 386.717072,241.725586 
	C385.277466,240.418640 384.209991,239.921524 384.139618,239.309723 
	C383.652344,235.073563 383.214966,230.815384 383.163635,226.559418 
	C383.153748,225.740829 384.920471,224.900818 386.350159,224.115814 
z"/>
<path fill="#1A2A5B" opacity="1.000000" stroke="none" 
	d="
M355.407166,169.508392 
	C355.107758,168.374680 355.107758,167.363983 355.107758,166.353271 
	C355.692871,166.477448 356.277954,166.601639 356.863068,166.725815 
	C356.477570,167.694351 356.092102,168.662888 355.407166,169.508392 
z"/>
<path fill="#1A2A5B" opacity="1.000000" stroke="none" 
	d="
M399.003784,256.036072 
	C399.509674,256.516144 399.884186,257.316895 400.274414,258.454193 
	C399.817535,257.979401 399.344971,257.168091 399.003784,256.036072 
z"/>
<path fill="#1A2A5B" opacity="1.000000" stroke="none" 
	d="
M364.610138,315.535797 
	C365.058289,315.651459 365.333038,315.933685 365.586517,316.233826 
	C365.593018,316.241516 365.366608,316.445862 365.248840,316.558502 
	C364.977203,316.273895 364.705566,315.989319 364.610138,315.535797 
z"/>
<path fill="#1A2A5B" opacity="1.000000" stroke="none" 
	d="
M368.535797,310.389893 
	C368.651459,309.941742 368.933716,309.667023 369.233887,309.413544 
	C369.241547,309.407074 369.445923,309.633453 369.558563,309.751221 
	C369.273956,310.022858 368.989319,310.294464 368.535797,310.389893 
z"/>
</svg>